<svg id="SvgjsSvg1074" width="288" height="288" xmlns="http://www.w3.org/2000/svg" version="1.1" xmlns:xlink="http://www.w3.org/1999/xlink" xmlns:svgjs="http://svgjs.com/svgjs"><defs id="SvgjsDefs1075"></defs><g id="SvgjsG1076" transform="matrix(1,0,0,1,0,0)"><svg xmlns="http://www.w3.org/2000/svg" xmlns:xlink="http://www.w3.org/1999/xlink" viewBox="0 0 64 64" width="288" height="288"><defs><path id="a" d="M.06 64V.04H64V64z" class="selectable"></path></defs><g fill-rule="evenodd"><mask id="b" fill="#fff" class="svgShape colorffffff-3"><use xlink:href="#a" class="selectable"></use></mask><path fill="#ffffff" d="M47.996 41.011c-.831 5.224-4.231 6.825-4.375 6.891a1.087 1.087 0 0 1-.788.046c-.227-.075-.525-.155-.888-.256-4.704-1.302-19.016-5.263-25.903-26.629a1.081 1.081 0 0 1-.021-.589c.034-.14.903-3.5 6.677-4.458.214-.037.436-.009.635.085.211.096 5.212 2.448 5.629 7.242.029.305-.076.611-.283.836-1.639 1.776-3.064 3.96-2.988 4.582.131 1.106 3.603 6.939 9.82 9.978.927-.146 3.076-1.562 4.632-2.891.266-.227.62-.318.964-.229 4.932 1.196 6.71 4.58 6.784 4.724.105.205.142.441.105.668zM32 0C14.327 0 0 14.327 0 32c0 17.673 14.327 32 32 32 17.673 0 32-14.327 32-32C64 14.327 49.673 0 32 0z" mask="url(#b)" class="svgShape color4c5665-6 selectable"></path></g></svg></g></svg>